<svg width="100" height="101" viewBox="0 0 100 101" fill="none" xmlns="http://www.w3.org/2000/svg">
<path d="M84.5167 86.6769C93.5 79.489 99.8071 64.4686 100 51.0488C100.193 37.6291 95 23.989 85.5472 14.989L49.4712 50.3011L84.5167 86.6769Z" fill="white"/>
<ellipse cx="50" cy="50.239" rx="23" ry="23.25" fill="white"/>
<path d="M72 95.989C64.2329 99.5504 54.7993 101.508 46.2886 100.832C37.7778 100.155 29.5789 97.3111 22.4654 92.5671C15.3519 87.8231 9.55834 81.336 5.63141 73.7177C1.70447 66.0995 -0.226349 57.6013 0.021119 49.0252C0.268587 40.449 2.68619 32.0776 7.0458 24.7009C11.4054 17.3241 17.5633 11.1853 24.9384 6.86352C32.3135 2.54178 40.6627 0.179668 49.1981 6.51544e-05C57.5 0.488983 64.5 1.38898 72 5.38899L61.5 15.989C56 14.489 55.6036 13.8605 49.4975 13.989C43.3914 14.1175 36.4185 16.1883 31.1425 19.28C25.8664 22.3717 21.4612 26.7634 18.3424 32.0406C15.2236 37.3178 13.4941 43.3066 13.317 49.4418C13.14 55.577 14.5213 61.6565 17.3306 67.1065C20 72.989 25.2844 78.1973 30.3733 81.591C36 84.489 41.5839 86.9745 47.5 86.989C53.4161 87.0035 56 86.989 61.5 84.989L72 95.989Z" fill="white"/>
</svg>
